<svg width="20" height="20" viewBox="0 0 20 20" fill="none" xmlns="http://www.w3.org/2000/svg">
<path fill-rule="evenodd" clip-rule="evenodd" d="M8.60987 18.6251C5.78741 13.2564 3.92667 9.67643 3.02765 7.88519C0.460774 2.77081 0.0148807 1.70809 0.000156987 1.01542C-0.00308132 0.863073 0.0424773 0.522437 0.25852 0.301789C0.440943 0.115478 0.687369 0.0642165 0.860326 0.0396861C1.03328 0.0151557 1.42728 -0.0153898 1.73514 0.00889204C5.249 0.286042 13.7762 1.48526 17.7118 2.09536C19.3771 2.35352 19.9354 2.86183 19.9901 3.35394C20.1088 4.4234 19.1372 5.2355 18.3179 6.27133C17.0358 7.8922 16.2377 8.80788 14.9867 10.3812C13.5408 12.1995 12.7462 11.0208 11.4475 9.98455C11.1076 9.71337 5.93584 5.00129 5.46668 4.91008C5.40801 4.89868 5.18929 4.88809 5.0738 4.99577C4.95831 5.10346 4.9978 5.26239 5.02921 5.37707C5.07373 5.53964 7.1389 8.129 11.2247 13.1451C11.8337 13.8801 12.1304 14.5458 12.1149 15.1423C12.0977 15.7999 11.6663 17.0647 11.2974 18.005C10.8451 19.1583 10.6059 20.075 9.83761 19.9952C9.43745 19.9536 9.0282 19.4969 8.60987 18.6251Z" fill="url(#paint0_linear_111120_99)"/>
<defs>
<linearGradient id="paint0_linear_111120_99" x1="0.133334" y1="0.331493" x2="11.9718" y2="13.4631" gradientUnits="userSpaceOnUse">
<stop stop-color="#475361"/>
<stop offset="1" stop-color="#1D1D1D"/>
</linearGradient>
</defs>
</svg>
