<svg width="20" height="20" viewBox="0 0 20 20" fill="none" xmlns="http://www.w3.org/2000/svg">
<path fill-rule="evenodd" clip-rule="evenodd" d="M16.5 10C16.5 11.0026 16.4966 11.2785 16.4791 11.4794C16.2464 14.1383 14.1383 16.2464 11.4794 16.4791C11.2785 16.4966 11.0026 16.5 10 16.5C8.99738 16.5 8.72149 16.4966 8.52064 16.4791C7.97567 16.4314 7.45383 16.3049 6.96654 16.1111C10.7253 16.1011 14.1723 13.6664 13.8704 9.18329H11.2368C11.2884 8.45022 11.8875 6.7886 13.8704 6.00665V4.30791C15.3191 5.19517 16.3227 6.73349 16.4791 8.52064C16.4966 8.72149 16.5 8.99738 16.5 10ZM13.2911 3.99913C12.1251 4.39862 10.5914 5.80872 10.2298 6.98408C9.8167 6.15598 8.44824 4.54051 6.66667 4.29615V6.33246C7.51872 6.63112 9.26932 7.6194 9.45522 9.18329H6.66667V11.1382H11.7016C11.3917 11.9934 10.3073 13.9483 6.66667 14.0704V15.9813C4.93257 15.1685 3.69595 13.4798 3.52093 11.4794C3.50336 11.2785 3.5 11.0026 3.5 10C3.5 8.99738 3.50336 8.72149 3.52093 8.52064C3.75356 5.86168 5.86169 3.75356 8.52064 3.52093C8.72149 3.50336 8.99738 3.5 10 3.5C11.0026 3.5 11.2785 3.50336 11.4794 3.52093C12.1216 3.57712 12.7318 3.74274 13.2911 3.99913ZM10 20C9.07137 20 8.60705 20 8.2156 19.9658C3.86458 19.5851 0.414913 16.1354 0.0342477 11.7844C0 11.3929 0 10.9286 0 10C0 9.07137 0 8.60705 0.0342477 8.2156C0.414913 3.86458 3.86458 0.414913 8.2156 0.0342484C8.60705 0 9.07137 0 10 0C10.9286 0 11.3929 0 11.7844 0.0342484C16.1354 0.414913 19.5851 3.86458 19.9658 8.2156C20 8.60705 20 9.07137 20 10C20 10.9286 20 11.3929 19.9658 11.7844C19.5851 16.1354 16.1354 19.5851 11.7844 19.9658C11.3929 20 10.9286 20 10 20Z" fill="black"/>
</svg>
