<svg width="30" height="30" viewBox="0 0 30 30" fill="none" xmlns="http://www.w3.org/2000/svg">
<path fill-rule="evenodd" clip-rule="evenodd" d="M15 26.5C12.1317 26.5 10.2146 26.4966 8.74621 26.3636C7.32598 26.2348 6.67275 26.0072 6.25 25.7631C5.41389 25.2804 4.71959 24.5861 4.23686 23.75C3.99279 23.3273 3.76515 22.674 3.63643 21.2538C3.50335 19.7854 3.5 17.8683 3.5 15C3.5 12.1317 3.50335 10.2146 3.63643 8.74621C3.76515 7.32598 3.99279 6.67275 4.23686 6.25C4.71959 5.41389 5.41389 4.71959 6.25 4.23686C6.67275 3.99279 7.32598 3.76515 8.74621 3.63643C10.2146 3.50335 12.1317 3.5 15 3.5C17.8683 3.5 19.7854 3.50335 21.2538 3.63643C22.674 3.76515 23.3273 3.99279 23.75 4.23686C24.5861 4.71959 25.2804 5.41389 25.7631 6.25C26.0072 6.67275 26.2348 7.32598 26.3636 8.74621C26.4966 10.2146 26.5 12.1317 26.5 15C26.5 17.8683 26.4966 19.7854 26.3636 21.2538C26.2348 22.674 26.0072 23.3273 25.7631 23.75C25.2804 24.5861 24.5861 25.2804 23.75 25.7631C23.3273 26.0072 22.674 26.2348 21.2538 26.3636C19.7854 26.4966 17.8683 26.5 15 26.5ZM0 15C0 9.39231 0 6.58846 1.20577 4.5C1.99569 3.13183 3.13183 1.99569 4.5 1.20577C6.58846 0 9.39231 0 15 0C20.6077 0 23.4115 0 25.5 1.20577C26.8682 1.99569 28.0043 3.13183 28.7942 4.5C30 6.58846 30 9.39231 30 15C30 20.6077 30 23.4115 28.7942 25.5C28.0043 26.8682 26.8682 28.0043 25.5 28.7942C23.4115 30 20.6077 30 15 30C9.39231 30 6.58846 30 4.5 28.7942C3.13183 28.0043 1.99569 26.8682 1.20577 25.5C0 23.4115 0 20.6077 0 15ZM13.2928 10V17.5523C12.0099 17.0876 9.07762 15.4609 8.89434 10H5.83989C5.65661 15.8095 9.32197 21.2704 16.2251 20.8056V16.8552C17.3247 16.9327 19.8171 17.8312 20.99 20.8056H24.1667C24.1667 19.0628 21.6009 15.9838 19.5239 15.3447C20.766 14.7251 23.1892 12.6724 23.5558 10H20.5013C20.0533 11.2781 18.5709 13.904 16.2251 14.1828V10H13.2928Z" fill="black"/>
</svg>
