<svg width="25" height="25" viewBox="0 0 25 25" fill="none" xmlns="http://www.w3.org/2000/svg">
<g clip-path="url(#clip0_111137_132)">
<path d="M25 12.5C25 5.6125 19.3875 0 12.5 0C5.6 0 0 5.6125 0 12.5C0 19.4 5.6 25 12.5 25C19.3875 25 25 19.4 25 12.5ZM9.725 19.2125L5.4625 7.775C6.15 7.75 6.925 7.675 6.925 7.675C7.55 7.6 7.475 6.2625 6.85 6.2875C6.85 6.2875 5.0375 6.425 3.8875 6.425C3.6625 6.425 3.425 6.425 3.1625 6.4125C4.17529 4.86161 5.56049 3.58917 7.19159 2.71139C8.8227 1.8336 10.6477 1.37845 12.5 1.3875C15.4125 1.3875 18.0625 2.475 20.0625 4.3125C19.2125 4.175 18 4.8 18 6.2875C18 7.2125 18.5625 7.9875 19.125 8.9125C19.5625 9.675 19.8125 10.6125 19.8125 11.9875C19.8125 13.85 18.0625 18.2375 18.0625 18.2375L14.275 7.775C14.95 7.75 15.3 7.5625 15.3 7.5625C15.925 7.5 15.85 6 15.225 6.0375C15.225 6.0375 13.425 6.1875 12.25 6.1875C11.1625 6.1875 9.3375 6.0375 9.3375 6.0375C8.7125 6 8.6375 7.5375 9.2625 7.5625L10.4125 7.6625L11.9875 11.925L9.725 19.2125ZM21.7625 12.5C22.0625 11.7 22.6875 10.1625 22.3 7.1875C23.175 8.8 23.6125 10.575 23.6125 12.5C23.6125 16.6125 21.45 20.3 18.1125 22.225C19.325 18.9875 20.5375 15.725 21.7625 12.5ZM7.625 22.6125C3.9 20.8125 1.3875 16.9125 1.3875 12.5C1.3875 10.875 1.675 9.4 2.2875 8.0125C4.0625 12.875 5.8375 17.75 7.625 22.6125ZM12.6625 14.325L15.8875 23.05C14.8125 23.4125 13.6875 23.6125 12.5 23.6125C11.5125 23.6125 10.5375 23.475 9.6375 23.2C10.65 20.225 11.6625 17.275 12.6625 14.325V14.325Z" fill="black"/>
</g>
<defs>
<clipPath id="clip0_111137_132">
<rect width="25" height="25" fill="white"/>
</clipPath>
</defs>
</svg>
